<?xml version="1.0" encoding="UTF-8" standalone="no"?>
<!-- Created with Inkscape (http://www.inkscape.org/) -->

<svg
   xmlns:dc="http://purl.org/dc/elements/1.1/"
   xmlns:cc="http://creativecommons.org/ns#"
   xmlns:rdf="http://www.w3.org/1999/02/22-rdf-syntax-ns#"
   xmlns:svg="http://www.w3.org/2000/svg"
   xmlns="http://www.w3.org/2000/svg"
   xmlns:sodipodi="http://sodipodi.sourceforge.net/DTD/sodipodi-0.dtd"
   xmlns:inkscape="http://www.inkscape.org/namespaces/inkscape"
   width="6.8791666mm"
   height="8.2020836mm"
   viewBox="0 0 6.8791666 8.2020836"
   version="1.1"
   id="svg8"
   inkscape:version="0.92.3 (2405546, 2018-03-11)"
   sodipodi:docname="logozaltron2.svg">
  <defs
     id="defs2" />
  <sodipodi:namedview
     id="base"
     pagecolor="#ffffff"
     bordercolor="#666666"
     borderopacity="1.0"
     inkscape:pageopacity="0.0"
     inkscape:pageshadow="2"
     inkscape:zoom="16"
     inkscape:cx="14.054134"
     inkscape:cy="15.499777"
     inkscape:document-units="mm"
     inkscape:current-layer="layer1"
     showgrid="false"
     showguides="false"
     inkscape:window-width="1299"
     inkscape:window-height="713"
     inkscape:window-x="67"
     inkscape:window-y="27"
     inkscape:window-maximized="1">
    <inkscape:grid
       type="xygrid"
       id="grid819"
       originx="-1.7197916"
       originy="-795.46976" />
  </sodipodi:namedview>
  <metadata
     id="metadata5">
    <rdf:RDF>
      <cc:Work
         rdf:about="">
        <dc:format>image/svg+xml</dc:format>
        <dc:type
           rdf:resource="http://purl.org/dc/dcmitype/StillImage" />
        <dc:title></dc:title>
      </cc:Work>
    </rdf:RDF>
  </metadata>
  <g
     inkscape:label="Layer 1"
     inkscape:groupmode="layer"
     id="layer1"
     transform="translate(-1.7197916,506.67186)">
    <text
       xml:space="preserve"
       style="font-style:normal;font-weight:normal;font-size:14.11111069px;line-height:1.25;font-family:sans-serif;letter-spacing:0px;word-spacing:0px;fill:#293d5a;fill-opacity:1;stroke:none;stroke-width:0.26458332"
       x="1.4699824"
       y="-498.66135"
       id="text817"><tspan
         sodipodi:role="line"
         id="tspan815"
         x="1.4699824"
         y="-498.66135"
         style="fill:#293d5a;fill-opacity:1;stroke-width:0.26458332">z</tspan></text>
    <path
       style="opacity:1;vector-effect:none;fill:none;fill-opacity:1;stroke:#000000;stroke-width:0.26458332px;stroke-linecap:butt;stroke-linejoin:miter;stroke-miterlimit:4;stroke-dasharray:none;stroke-dashoffset:0;stroke-opacity:1"
       d="m 2.0963953,-498.7282 -0.00835,-1.06908 4.72734,-5.55167 -4.5593378,0.0119 -0.011812,-1.06304 6.0003719,0.0119 0.011811,1.15755 -4.7483257,5.55152 4.7483257,-0.0119 v 0.96856 z"
       id="path827"
       inkscape:connector-curvature="0" />
    <path
       style="opacity:1;vector-effect:none;fill:none;fill-opacity:1;stroke:#000000;stroke-width:0.26458332px;stroke-linecap:butt;stroke-linejoin:miter;stroke-miterlimit:4;stroke-dasharray:none;stroke-dashoffset:0;stroke-opacity:1"
       d="m 2.2560475,-505.33704 6.0003708,5.64602"
       id="path829"
       inkscape:connector-curvature="0" />
    <path
       style="fill:#293d5a;fill-opacity:1;stroke:#293d5a;stroke-width:0.06313454;stroke-opacity:1"
       d="m 1.9555592,28.711892 c 0,-0.445922 -0.017484,-1.191699 -0.038853,-1.657282 l -0.038853,-0.846515 4.8404827,-5.682108 c 2.6622656,-3.125159 4.8673791,-5.682108 4.9002521,-5.682108 0.07847,0 2.395667,2.172415 2.395667,2.245986 0,0.03112 -1.877328,2.251716 -4.1718402,4.93465 l -4.1718401,4.87806 9.2541703,0.01599 9.25417,0.01599 v 1.294048 1.294048 H 13.067237 1.9555592 Z"
       id="path853"
       inkscape:connector-curvature="0"
       transform="matrix(0.26458333,0,0,0.26458333,1.7197916,-506.67186)" />
    <path
       style="fill:#ffffff;fill-opacity:1;stroke:#293d5a;stroke-width:0.0625;stroke-opacity:1"
       d="m 8.6487834,25.039187 c 0.4051306,-0.473569 1.9561046,-2.287057 3.4466086,-4.029973 2.391634,-2.796649 2.722532,-3.159909 2.816622,-3.092089 0.05864,0.04227 1.972689,1.834661 4.253446,3.983099 l 4.146832,3.90625 -2.307204,0.03822 c -1.268962,0.02102 -4.733987,0.04212 -7.700055,0.04687 l -5.3928508,0.0087 z"
       id="path876"
       inkscape:connector-curvature="0"
       transform="matrix(0.26458333,0,0,0.26458333,1.7197916,-506.67186)" />
    <path
       style="fill:#ffffff;fill-opacity:1;stroke:#293d5a;stroke-width:0.0625;stroke-opacity:1"
       d="M 7.4515754,9.4193393 3.4137099,5.6189737 7.2120472,5.5731017 c 2.0890855,-0.02523 5.3906958,-0.039292 7.3369118,-0.03125 l 3.538574,0.014622 -3.24509,3.8125 c -1.7848,2.0968753 -3.26937,3.8211023 -3.299046,3.8316153 -0.02968,0.01051 -1.8709956,-1.691049 -4.0918216,-3.7812497 z"
       id="path878"
       inkscape:connector-curvature="0"
       transform="matrix(0.26458333,0,0,0.26458333,1.7197916,-506.67186)" />
  </g>
</svg>
